<svg width="156" height="32" viewBox="0 0 156 32" fill="none" xmlns="http://www.w3.org/2000/svg">
<path d="M45.34 8.96V11.7H41.62V23H38.2V11.7H34.48V8.96H45.34ZM50.4764 13.7C50.8764 13.0867 51.3764 12.6067 51.9764 12.26C52.5764 11.9 53.2431 11.72 53.9764 11.72V15.34H53.0364C52.1831 15.34 51.5431 15.5267 51.1164 15.9C50.6897 16.26 50.4764 16.9 50.4764 17.82V23H47.0564V11.84H50.4764V13.7ZM54.9311 17.4C54.9311 16.2533 55.1444 15.2467 55.5711 14.38C56.0111 13.5133 56.6044 12.8467 57.3511 12.38C58.0978 11.9133 58.9311 11.68 59.8511 11.68C60.6378 11.68 61.3244 11.84 61.9111 12.16C62.5111 12.48 62.9711 12.9 63.2911 13.42V11.84H66.7111V23H63.2911V21.42C62.9578 21.94 62.4911 22.36 61.8911 22.68C61.3044 23 60.6178 23.16 59.8311 23.16C58.9244 23.16 58.0978 22.9267 57.3511 22.46C56.6044 21.98 56.0111 21.3067 55.5711 20.44C55.1444 19.56 54.9311 18.5467 54.9311 17.4ZM63.2911 17.42C63.2911 16.5667 63.0511 15.8933 62.5711 15.4C62.1044 14.9067 61.5311 14.66 60.8511 14.66C60.1711 14.66 59.5911 14.9067 59.1111 15.4C58.6444 15.88 58.4111 16.5467 58.4111 17.4C58.4111 18.2533 58.6444 18.9333 59.1111 19.44C59.5911 19.9333 60.1711 20.18 60.8511 20.18C61.5311 20.18 62.1044 19.9333 62.5711 19.44C63.0511 18.9467 63.2911 18.2733 63.2911 17.42ZM74.2053 19.8L76.6253 11.84H80.2653L76.3053 23H72.0853L68.1253 11.84H71.7853L74.2053 19.8ZM92.2248 17.24C92.2248 17.56 92.2048 17.8933 92.1648 18.24H84.4248C84.4782 18.9333 84.6982 19.4667 85.0848 19.84C85.4848 20.2 85.9715 20.38 86.5448 20.38C87.3982 20.38 87.9915 20.02 88.3248 19.3H91.9648C91.7782 20.0333 91.4382 20.6933 90.9448 21.28C90.4648 21.8667 89.8582 22.3267 89.1248 22.66C88.3915 22.9933 87.5715 23.16 86.6648 23.16C85.5715 23.16 84.5982 22.9267 83.7448 22.46C82.8915 21.9933 82.2248 21.3267 81.7448 20.46C81.2648 19.5933 81.0248 18.58 81.0248 17.42C81.0248 16.26 81.2582 15.2467 81.7248 14.38C82.2048 13.5133 82.8715 12.8467 83.7248 12.38C84.5782 11.9133 85.5582 11.68 86.6648 11.68C87.7448 11.68 88.7048 11.9067 89.5448 12.36C90.3848 12.8133 91.0382 13.46 91.5048 14.3C91.9848 15.14 92.2248 16.12 92.2248 17.24ZM88.7248 16.34C88.7248 15.7533 88.5248 15.2867 88.1248 14.94C87.7248 14.5933 87.2248 14.42 86.6248 14.42C86.0515 14.42 85.5648 14.5867 85.1648 14.92C84.7782 15.2533 84.5382 15.7267 84.4448 16.34H88.7248ZM97.4491 8.2V23H94.0291V8.2H97.4491ZM104.168 11.68C104.954 11.68 105.641 11.84 106.228 12.16C106.828 12.48 107.288 12.9 107.608 13.42V11.84H111.028V22.98C111.028 24.0067 110.821 24.9333 110.408 25.76C110.008 26.6 109.388 27.2667 108.548 27.76C107.721 28.2533 106.688 28.5 105.448 28.5C103.794 28.5 102.454 28.1067 101.428 27.32C100.401 26.5467 99.8142 25.4933 99.6675 24.16H103.048C103.154 24.5867 103.408 24.92 103.808 25.16C104.208 25.4133 104.701 25.54 105.288 25.54C105.994 25.54 106.554 25.3333 106.968 24.92C107.394 24.52 107.608 23.8733 107.608 22.98V21.4C107.274 21.92 106.814 22.3467 106.228 22.68C105.641 23 104.954 23.16 104.168 23.16C103.248 23.16 102.414 22.9267 101.668 22.46C100.921 21.98 100.328 21.3067 99.8875 20.44C99.4608 19.56 99.2475 18.5467 99.2475 17.4C99.2475 16.2533 99.4608 15.2467 99.8875 14.38C100.328 13.5133 100.921 12.8467 101.668 12.38C102.414 11.9133 103.248 11.68 104.168 11.68ZM107.608 17.42C107.608 16.5667 107.368 15.8933 106.888 15.4C106.421 14.9067 105.848 14.66 105.168 14.66C104.488 14.66 103.908 14.9067 103.428 15.4C102.961 15.88 102.728 16.5467 102.728 17.4C102.728 18.2533 102.961 18.9333 103.428 19.44C103.908 19.9333 104.488 20.18 105.168 20.18C105.848 20.18 106.421 19.9333 106.888 19.44C107.368 18.9467 107.608 18.2733 107.608 17.42ZM116.922 13.7C117.322 13.0867 117.822 12.6067 118.422 12.26C119.022 11.9 119.688 11.72 120.422 11.72V15.34H119.482C118.628 15.34 117.988 15.5267 117.562 15.9C117.135 16.26 116.922 16.9 116.922 17.82V23H113.502V11.84H116.922V13.7ZM121.376 17.4C121.376 16.2533 121.59 15.2467 122.016 14.38C122.456 13.5133 123.05 12.8467 123.796 12.38C124.543 11.9133 125.376 11.68 126.296 11.68C127.083 11.68 127.77 11.84 128.356 12.16C128.956 12.48 129.416 12.9 129.736 13.42V11.84H133.156V23H129.736V21.42C129.403 21.94 128.936 22.36 128.336 22.68C127.75 23 127.063 23.16 126.276 23.16C125.37 23.16 124.543 22.9267 123.796 22.46C123.05 21.98 122.456 21.3067 122.016 20.44C121.59 19.56 121.376 18.5467 121.376 17.4ZM129.736 17.42C129.736 16.5667 129.496 15.8933 129.016 15.4C128.55 14.9067 127.976 14.66 127.296 14.66C126.616 14.66 126.036 14.9067 125.556 15.4C125.09 15.88 124.856 16.5467 124.856 17.4C124.856 18.2533 125.09 18.9333 125.556 19.44C126.036 19.9333 126.616 20.18 127.296 20.18C127.976 20.18 128.55 19.9333 129.016 19.44C129.496 18.9467 129.736 18.2733 129.736 17.42ZM149.871 11.72C151.257 11.72 152.357 12.14 153.171 12.98C153.997 13.82 154.411 14.9867 154.411 16.48V23H151.011V16.94C151.011 16.22 150.817 15.6667 150.431 15.28C150.057 14.88 149.537 14.68 148.871 14.68C148.204 14.68 147.677 14.88 147.291 15.28C146.917 15.6667 146.731 16.22 146.731 16.94V23H143.331V16.94C143.331 16.22 143.137 15.6667 142.751 15.28C142.377 14.88 141.857 14.68 141.191 14.68C140.524 14.68 139.997 14.88 139.611 15.28C139.237 15.6667 139.051 16.22 139.051 16.94V23H135.631V11.84H139.051V13.24C139.397 12.7733 139.851 12.4067 140.411 12.14C140.971 11.86 141.604 11.72 142.311 11.72C143.151 11.72 143.897 11.9 144.551 12.26C145.217 12.62 145.737 13.1333 146.111 13.8C146.497 13.1867 147.024 12.6867 147.691 12.3C148.357 11.9133 149.084 11.72 149.871 11.72Z" fill="#EF5F4C"/>
<path opacity="0.2" d="M23.6363 21.56C22.6667 23.4146 21.229 24.9834 19.4658 26.1107C17.7026 27.238 15.6753 27.8846 13.585 27.9863L13.9813 25.9313C14.0107 25.777 14.0035 25.618 13.96 25.467C13.9166 25.3161 13.8382 25.1775 13.7313 25.0625L11.2638 22.5213C11.1308 22.3777 11.0428 22.1982 11.0108 22.0051C10.9788 21.812 11.0042 21.6138 11.0838 21.435L12.7963 17.5925C12.8843 17.3951 13.034 17.2314 13.2228 17.1262C13.4117 17.021 13.6295 16.9798 13.8438 17.0088L16.6963 17.3938C16.8344 17.4127 16.9672 17.4599 17.0863 17.5325L23.6363 21.56ZM11.5888 11.875L13.125 11.03C13.1928 10.9933 13.2558 10.9484 13.3125 10.8963L16.6763 7.85501C16.8437 7.70274 16.9545 7.49817 16.9906 7.27475C17.0267 7.05133 16.986 6.82227 16.875 6.62501L15.5625 4.27376C14.7206 4.09138 13.8615 3.99961 13 4.00001C10.2609 3.99584 7.60343 4.93269 5.47251 6.65376L4.00001 10.135C3.90055 10.3707 3.89519 10.6355 3.98502 10.875L5.42251 14.7088C5.48158 14.8654 5.57902 15.0047 5.70591 15.1139C5.8328 15.2231 5.98507 15.2987 6.14876 15.3338L6.48501 15.4063L8.15001 12.5C8.23791 12.3478 8.36438 12.2214 8.51668 12.1336C8.66898 12.0458 8.84173 11.9998 9.01751 12H11.1063C11.2751 12.0003 11.4413 11.9572 11.5888 11.875Z" fill="#EF5F4C"/>
<path d="M13 3C10.4288 3 7.91543 3.76244 5.77759 5.19089C3.63975 6.61935 1.97351 8.64967 0.989572 11.0251C0.0056327 13.4006 -0.251811 16.0144 0.249797 18.5362C0.751405 21.0579 1.98953 23.3743 3.80762 25.1924C5.6257 27.0105 7.94208 28.2486 10.4638 28.7502C12.9856 29.2518 15.5994 28.9944 17.9749 28.0104C20.3503 27.0265 22.3806 25.3602 23.8091 23.2224C25.2376 21.0846 26 18.5712 26 16C25.9964 12.5533 24.6256 9.24881 22.1884 6.81163C19.7512 4.37445 16.4467 3.00364 13 3ZM24 16C24.0011 17.4112 23.7294 18.8094 23.2 20.1175L17.6125 16.6812C17.3749 16.5346 17.1092 16.4397 16.8325 16.4025L13.98 16.0175C13.5869 15.9662 13.1875 16.0321 12.8317 16.2069C12.4759 16.3817 12.1797 16.6576 11.98 17H10.89L10.415 16.0175C10.2837 15.7439 10.0915 15.504 9.85317 15.3162C9.61484 15.1283 9.33669 14.9975 9.04 14.9337L8.04 14.7175L9.0175 13H11.1063C11.4442 12.9993 11.7766 12.9133 12.0725 12.75L13.6038 11.905C13.7383 11.83 13.8641 11.7403 13.9788 11.6375L17.3425 8.595C17.6798 8.29276 17.9039 7.8846 17.978 7.43784C18.0521 6.99108 17.9717 6.53241 17.75 6.1375L17.705 6.05625C19.5872 6.94874 21.1778 8.35674 22.292 10.1168C23.4063 11.8769 23.9985 13.9169 24 16ZM14.9138 5.1675L16 7.1125L12.6363 10.155L11.1063 11H9.0175C8.66593 10.9995 8.32043 11.0916 8.01583 11.2672C7.71123 11.4428 7.45829 11.6955 7.2825 12L6.19125 13.9037L4.9225 10.5237L6.29 7.29C7.50043 6.35474 8.89286 5.68262 10.3781 5.31669C11.8633 4.95076 13.4086 4.8991 14.915 5.165L14.9138 5.1675ZM2.00001 16C1.99834 14.365 2.36311 12.7505 3.06751 11.275L4.485 15.0587C4.60313 15.372 4.79802 15.6506 5.0518 15.869C5.30557 16.0874 5.61012 16.2386 5.9375 16.3087L8.61625 16.885L9.0925 17.875C9.25778 18.2117 9.51393 18.4955 9.83201 18.6943C10.1501 18.8931 10.5174 18.999 10.8925 19H11.0775L10.1738 21.0287C10.0145 21.386 9.96351 21.782 10.0271 22.168C10.0906 22.5539 10.2659 22.9127 10.5313 23.2L10.5488 23.2175L13 25.7425L12.7575 26.9925C9.88479 26.9256 7.15195 25.7387 5.14216 23.685C3.13236 21.6313 2.00477 18.8735 2.00001 16ZM14.8225 26.8475L14.9638 26.1212C15.0218 25.8127 15.0068 25.4949 14.92 25.1931C14.8332 24.8914 14.6769 24.6142 14.4638 24.3837C14.4576 24.3782 14.4518 24.3724 14.4463 24.3662L12 21.8425L13.7125 18L16.565 18.385L22.28 21.9C21.452 23.2003 20.3605 24.3125 19.076 25.1647C17.7914 26.0169 16.3424 26.5902 14.8225 26.8475Z" fill="#EF5F4C"/>
</svg>
