<svg width="32" height="32" viewBox="0 0 32 32" fill="none" xmlns="http://www.w3.org/2000/svg">
<path opacity="0.2" d="M29.0908 22.843C27.8975 25.1256 26.128 27.0564 23.9579 28.4439C21.7878 29.8313 19.2926 30.6271 16.72 30.7523L17.2077 28.223C17.244 28.0332 17.235 27.8374 17.1816 27.6517C17.1281 27.4659 17.0317 27.2953 16.9 27.1538L13.8631 24.0261C13.6994 23.8494 13.5911 23.6285 13.5517 23.3909C13.5124 23.1532 13.5436 22.9093 13.6415 22.6892L15.7492 17.96C15.8576 17.7169 16.0418 17.5156 16.2742 17.386C16.5066 17.2565 16.7748 17.2058 17.0385 17.2415L20.5492 17.7153C20.7193 17.7386 20.8827 17.7968 21.0292 17.8861L29.0908 22.843ZM14.2631 10.923L16.1538 9.88303C16.2373 9.83791 16.3148 9.78262 16.3846 9.71842L20.5246 5.97534C20.7307 5.78793 20.8671 5.53615 20.9115 5.26117C20.9559 4.9862 20.9058 4.70428 20.7692 4.4615L19.1538 1.56765C18.1176 1.34319 17.0603 1.23023 16 1.23073C12.6288 1.22559 9.35805 2.37864 6.73539 4.49688L4.92308 8.7815C4.80067 9.07155 4.79406 9.39749 4.90462 9.69227L6.67385 14.4107C6.74654 14.6035 6.86648 14.775 7.02265 14.9094C7.17882 15.0438 7.36623 15.1368 7.5677 15.18L7.98154 15.2692L10.0308 11.6923C10.1389 11.5049 10.2946 11.3494 10.4821 11.2413C10.6695 11.1333 10.8821 11.0766 11.0985 11.0769H13.6692C13.8771 11.0772 14.0815 11.0243 14.2631 10.923Z" fill="#EF5F4C"/>
<path d="M16 0C12.8355 0 9.74207 0.938383 7.11088 2.69649C4.4797 4.45459 2.42894 6.95345 1.21793 9.87706C0.00693255 12.8007 -0.309921 16.0177 0.307443 19.1214C0.924806 22.2251 2.44866 25.0761 4.6863 27.3137C6.92394 29.5513 9.77486 31.0752 12.8786 31.6926C15.9823 32.3099 19.1993 31.9931 22.1229 30.7821C25.0466 29.5711 27.5454 27.5203 29.3035 24.8891C31.0616 22.2579 32 19.1645 32 16C31.9955 11.7579 30.3084 7.69085 27.3088 4.69124C24.3091 1.69163 20.2421 0.00447972 16 0ZM29.5385 16C29.5398 17.7369 29.2055 19.4577 28.5538 21.0677L21.6769 16.8385C21.3845 16.658 21.0574 16.5411 20.7169 16.4954L17.2062 16.0215C16.7224 15.9585 16.2308 16.0395 15.7929 16.2547C15.355 16.4698 14.9904 16.8093 14.7446 17.2308H13.4031L12.8185 16.0215C12.6568 15.6848 12.4203 15.3896 12.127 15.1584C11.8337 14.9272 11.4913 14.7662 11.1262 14.6877L9.89539 14.4215L11.0985 12.3077H13.6692C14.0852 12.3069 14.4943 12.201 14.8585 12L16.7431 10.96C16.9087 10.8677 17.0635 10.7573 17.2046 10.6308L21.3446 6.88615C21.7597 6.51417 22.0356 6.01181 22.1268 5.46196C22.2179 4.9121 22.119 4.34758 21.8462 3.86154L21.7908 3.76154C24.1074 4.85999 26.065 6.59291 27.4363 8.75916C28.8077 10.9254 29.5366 13.4362 29.5385 16ZM18.3554 2.66769L19.6923 5.06154L15.5523 8.80615L13.6692 9.84615H11.0985C10.6658 9.84551 10.2405 9.95895 9.86564 10.175C9.49075 10.3911 9.17943 10.7022 8.96308 11.0769L7.62 13.42L6.05847 9.26L7.74154 5.28C9.2313 4.12891 10.9451 3.30169 12.773 2.85131C14.601 2.40094 16.5029 2.33735 18.3569 2.66461L18.3554 2.66769ZM2.46154 16C2.45949 13.9877 2.90844 12.0006 3.77539 10.1846L5.52001 14.8415C5.6654 15.2271 5.90526 15.57 6.2176 15.8388C6.52994 16.1076 6.90476 16.2937 7.3077 16.38L10.6046 17.0892L11.1908 18.3077C11.3942 18.7221 11.7095 19.0714 12.1009 19.316C12.4924 19.5607 12.9445 19.691 13.4062 19.6923H13.6339L12.5215 22.1892C12.3256 22.6289 12.2628 23.1164 12.341 23.5913C12.4192 24.0663 12.6349 24.5079 12.9615 24.8615L12.9831 24.8831L16 27.9908L15.7015 29.5292C12.1659 29.4469 8.8024 27.9861 6.32881 25.4585C3.85521 22.9309 2.46741 19.5366 2.46154 16ZM18.2431 29.3508L18.4169 28.4569C18.4884 28.0772 18.4699 27.686 18.3631 27.3146C18.2562 26.9433 18.0639 26.6021 17.8015 26.3185C17.794 26.3117 17.7868 26.3045 17.78 26.2969L14.7692 23.1908L16.8769 18.4615L20.3877 18.9354L27.4215 23.2615C26.4025 24.8619 25.0591 26.2307 23.4781 27.2796C21.8971 28.3284 20.1137 29.034 18.2431 29.3508Z" fill="#EF5F4C"/>
</svg>
